<svg xmlns="http://www.w3.org/2000/svg" xmlns:xlink="http://www.w3.org/1999/xlink" width="160" zoomAndPan="magnify" viewBox="0 0 120 37.5" height="50" preserveAspectRatio="xMidYMid meet" version="1.0"><defs><g/></defs><path fill="#e4c590" d="M 24.855469 31.527344 C 22.757812 32.660156 20.359375 33.304688 17.8125 33.304688 C 9.636719 33.304688 3.011719 26.679688 3.011719 18.503906 C 3.011719 10.328125 9.636719 3.699219 17.8125 3.699219 C 20.070312 3.699219 22.210938 4.207031 24.128906 5.113281 C 24.003906 5.269531 23.886719 5.433594 23.78125 5.609375 C 23.265625 6.429688 22.863281 7.425781 22.601562 8.484375 C 21.152344 7.789062 19.527344 7.402344 17.8125 7.402344 C 11.679688 7.402344 6.710938 12.371094 6.710938 18.503906 C 6.710938 24.632812 11.679688 29.605469 17.8125 29.605469 C 20.988281 29.605469 23.851562 28.269531 25.878906 26.132812 C 25.65625 26.953125 25.355469 27.832031 24.945312 28.816406 C 24.640625 29.464844 24.558594 29.9375 24.558594 30.6875 C 24.558594 30.988281 24.664062 31.269531 24.855469 31.527344 Z M 22.261719 10.816406 C 22.148438 13.527344 23.015625 16.183594 25.335938 17.210938 C 26.054688 17.859375 26.5 18.660156 26.5 19.703125 C 26.5 19.925781 26.5 20.144531 26.5 20.359375 C 25.644531 24.375 22.082031 27.386719 17.8125 27.386719 C 12.90625 27.386719 8.929688 23.410156 8.929688 18.503906 C 8.929688 13.597656 12.90625 9.621094 17.8125 9.621094 C 19.433594 9.621094 20.953125 10.054688 22.261719 10.816406 Z M 22.261719 10.816406 " fill-opacity="1" fill-rule="evenodd"/><path fill="#e4c590" d="M 31.699219 16.933594 C 35.425781 15.214844 35.261719 9.734375 33.214844 6.320312 C 31.132812 2.851562 28.023438 2.800781 25.910156 6.320312 C 23.875 9.714844 23.6875 15.210938 27.429688 16.933594 C 28.113281 17.570312 28.636719 18.824219 28.636719 19.855469 C 28.636719 22.957031 28.828125 25.394531 27.210938 28.96875 C 26.921875 29.609375 26.789062 30.097656 26.789062 30.496094 C 26.789062 32.046875 28.03125 33.304688 29.5625 33.304688 C 31.09375 33.304688 32.339844 32.046875 32.339844 30.496094 C 32.339844 30.097656 32.203125 29.609375 31.914062 28.96875 C 30.277344 25.34375 30.488281 22.738281 30.488281 19.855469 C 30.488281 18.824219 31.011719 17.570312 31.699219 16.933594 Z M 31.699219 16.933594 " fill-opacity="1" fill-rule="nonzero"/><g fill="#feffff" fill-opacity="1"><g transform="translate(35.84343, 16.009951)"><g><path d="M 0.800781 -0.308594 L 0.933594 -0.0976562 L 1.140625 0.0234375 L 1.359375 0.0117188 L 1.800781 0.03125 L 2.027344 0.0117188 L 2.488281 0.0234375 L 2.71875 -0.109375 L 2.808594 -0.316406 L 2.828125 -0.527344 L 2.808594 -0.769531 L 2.808594 -2.710938 L 2.90625 -2.941406 L 3.136719 -3.082031 L 4.429688 -3.09375 L 4.660156 -3.058594 L 4.859375 -3.058594 L 5.066406 -2.941406 L 5.175781 -2.730469 L 5.1875 -0.308594 L 5.308594 -0.132812 L 5.628906 0.0117188 L 6.199219 0.0117188 L 6.417969 -0.0117188 L 6.867188 0.0234375 L 7.074219 -0.121094 L 7.207031 -0.308594 L 7.183594 -1.304688 L 7.21875 -1.65625 L 7.183594 -1.832031 L 7.195312 -7.339844 L 7.097656 -7.570312 L 6.878906 -7.65625 L 5.617188 -7.667969 L 5.296875 -7.589844 L 5.1875 -7.328125 L 5.175781 -6.910156 L 5.199219 -6.722656 L 5.175781 -6.273438 L 5.210938 -6.066406 L 5.199219 -5.210938 L 5.078125 -4.992188 L 4.859375 -4.871094 L 4.652344 -4.902344 L 4.222656 -4.859375 L 3.992188 -4.882812 L 3.796875 -4.859375 L 3.148438 -4.871094 L 2.941406 -4.96875 L 2.828125 -5.175781 L 2.820312 -5.417969 L 2.820312 -5.648438 L 2.808594 -5.847656 L 2.820312 -6.703125 L 2.839844 -6.941406 L 2.820312 -7.347656 L 2.71875 -7.558594 L 2.488281 -7.679688 L 2.25 -7.65625 L 1.164062 -7.679688 L 0.921875 -7.570312 L 0.8125 -7.347656 L 0.789062 -7.109375 L 0.8125 -6.253906 L 0.789062 -6.03125 L 0.832031 -5.582031 L 0.8125 -5.167969 L 0.824219 -4.902344 L 0.800781 -4.683594 L 0.800781 -1.402344 L 0.832031 -1.207031 Z M 0.800781 -0.308594 "/></g></g></g><g fill="#feffff" fill-opacity="1"><g transform="translate(43.868475, 16.009951)"><g><path d="M 6.472656 0.0234375 L 6.886719 -0.0117188 L 7.097656 0.0117188 L 7.4375 0 L 7.742188 -0.0546875 L 7.777344 -0.316406 L 7.699219 -0.570312 L 7.535156 -0.976562 L 7.238281 -1.546875 L 7.085938 -1.953125 L 6.867188 -2.347656 L 6.449219 -3.34375 L 6.339844 -3.511719 L 6.230469 -3.71875 L 6.164062 -3.960938 L 6.066406 -4.125 L 6 -4.300781 L 5.769531 -4.707031 L 5.691406 -4.9375 L 4.96875 -6.460938 L 4.902344 -6.679688 L 4.78125 -6.878906 L 4.714844 -7.074219 L 4.507812 -7.457031 L 4.320312 -7.65625 L 3.960938 -7.765625 L 3.609375 -7.644531 L 3.410156 -7.457031 L 3.3125 -7.273438 L 3.234375 -7.054688 L 3.136719 -6.898438 L 2.699219 -5.890625 L 2.578125 -5.726562 L 2.523438 -5.507812 L 2.402344 -5.296875 L 2.335938 -5.101562 L 1.21875 -2.753906 L 1.152344 -2.511719 L 1.042969 -2.347656 L 0.964844 -2.128906 L 0.769531 -1.777344 L 0.601562 -1.339844 L 0.484375 -1.183594 L 0.429688 -0.988281 L 0.207031 -0.546875 L 0.144531 -0.328125 L 0.199219 -0.0546875 L 0.417969 0.0117188 L 0.84375 -0.0117188 L 1.0625 0.0117188 L 1.679688 -0.0117188 L 1.929688 -0.0859375 L 2.140625 -0.285156 L 2.335938 -0.648438 L 2.542969 -0.855469 L 2.773438 -0.976562 L 2.984375 -0.941406 L 3.445312 -0.988281 L 3.640625 -0.953125 L 4.714844 -0.964844 L 4.914062 -0.941406 L 5.15625 -0.976562 L 5.398438 -0.855469 L 5.605469 -0.679688 L 5.703125 -0.472656 L 5.769531 -0.273438 L 5.988281 -0.109375 L 6.242188 0 Z M 3.980469 -2.710938 L 3.761719 -2.753906 L 3.511719 -2.730469 L 3.335938 -2.808594 L 3.324219 -3.015625 L 3.839844 -4.199219 L 3.960938 -4.300781 L 4.113281 -4.210938 L 4.628906 -3.003906 L 4.585938 -2.808594 L 4.421875 -2.71875 Z M 3.980469 -2.710938 "/></g></g></g><g fill="#feffff" fill-opacity="1"><g transform="translate(51.827746, 16.009951)"><g><path d="M 1.46875 0.03125 L 2.007812 0.0117188 L 2.203125 0.0234375 L 2.457031 0 L 2.6875 -0.0859375 L 2.785156 -0.316406 L 2.773438 -0.539062 L 2.785156 -0.777344 L 2.765625 -1.183594 L 2.785156 -1.394531 L 2.773438 -1.644531 L 2.875 -1.84375 L 3.125 -1.964844 L 3.367188 -1.984375 L 3.597656 -1.941406 L 4.726562 -2.027344 L 5.769531 -2.445312 L 5.933594 -2.578125 L 6.085938 -2.753906 L 6.230469 -2.894531 L 6.371094 -3.058594 L 6.601562 -3.410156 L 6.789062 -3.839844 L 6.824219 -4.082031 L 6.886719 -4.257812 L 6.910156 -5.15625 L 6.867188 -5.339844 L 6.832031 -5.582031 L 6.703125 -5.988281 L 6.492188 -6.363281 L 6.230469 -6.722656 L 5.738281 -7.152344 L 5.375 -7.394531 L 4.9375 -7.523438 L 4.75 -7.601562 L 4.53125 -7.601562 L 4.3125 -7.679688 L 3.980469 -7.6875 L 3.628906 -7.679688 L 3.390625 -7.644531 L 2.71875 -7.65625 L 2.5 -7.6875 L 1.820312 -7.644531 L 1.578125 -7.65625 L 1.382812 -7.6875 L 1.152344 -7.644531 L 0.921875 -7.523438 L 0.824219 -7.347656 L 0.832031 -6.023438 L 0.789062 -5.582031 L 0.8125 -5.375 L 0.800781 -2.535156 L 0.824219 -2.324219 L 0.8125 -0.296875 L 0.933594 -0.0859375 L 1.273438 0.0234375 Z M 3.113281 -3.71875 L 2.894531 -3.851562 L 2.796875 -4.035156 L 2.765625 -4.925781 L 2.785156 -5.15625 L 2.785156 -5.605469 L 2.894531 -5.8125 L 3.125 -5.921875 L 4.265625 -5.890625 L 4.484375 -5.792969 L 4.660156 -5.671875 L 4.804688 -5.527344 L 4.914062 -5.308594 L 4.945312 -5.113281 L 4.96875 -4.804688 L 4.945312 -4.507812 L 4.871094 -4.3125 L 4.769531 -4.136719 L 4.628906 -3.960938 L 4.453125 -3.828125 L 4.277344 -3.773438 L 3.9375 -3.730469 L 3.378906 -3.742188 Z M 3.113281 -3.71875 "/></g></g></g><g fill="#feffff" fill-opacity="1"><g transform="translate(59.041522, 16.009951)"><g><path d="M 1.46875 0.03125 L 2.007812 0.0117188 L 2.203125 0.0234375 L 2.457031 0 L 2.6875 -0.0859375 L 2.785156 -0.316406 L 2.773438 -0.539062 L 2.785156 -0.777344 L 2.765625 -1.183594 L 2.785156 -1.394531 L 2.773438 -1.644531 L 2.875 -1.84375 L 3.125 -1.964844 L 3.367188 -1.984375 L 3.597656 -1.941406 L 4.726562 -2.027344 L 5.769531 -2.445312 L 5.933594 -2.578125 L 6.085938 -2.753906 L 6.230469 -2.894531 L 6.371094 -3.058594 L 6.601562 -3.410156 L 6.789062 -3.839844 L 6.824219 -4.082031 L 6.886719 -4.257812 L 6.910156 -5.15625 L 6.867188 -5.339844 L 6.832031 -5.582031 L 6.703125 -5.988281 L 6.492188 -6.363281 L 6.230469 -6.722656 L 5.738281 -7.152344 L 5.375 -7.394531 L 4.9375 -7.523438 L 4.75 -7.601562 L 4.53125 -7.601562 L 4.3125 -7.679688 L 3.980469 -7.6875 L 3.628906 -7.679688 L 3.390625 -7.644531 L 2.71875 -7.65625 L 2.5 -7.6875 L 1.820312 -7.644531 L 1.578125 -7.65625 L 1.382812 -7.6875 L 1.152344 -7.644531 L 0.921875 -7.523438 L 0.824219 -7.347656 L 0.832031 -6.023438 L 0.789062 -5.582031 L 0.8125 -5.375 L 0.800781 -2.535156 L 0.824219 -2.324219 L 0.8125 -0.296875 L 0.933594 -0.0859375 L 1.273438 0.0234375 Z M 3.113281 -3.71875 L 2.894531 -3.851562 L 2.796875 -4.035156 L 2.765625 -4.925781 L 2.785156 -5.15625 L 2.785156 -5.605469 L 2.894531 -5.8125 L 3.125 -5.921875 L 4.265625 -5.890625 L 4.484375 -5.792969 L 4.660156 -5.671875 L 4.804688 -5.527344 L 4.914062 -5.308594 L 4.945312 -5.113281 L 4.96875 -4.804688 L 4.945312 -4.507812 L 4.871094 -4.3125 L 4.769531 -4.136719 L 4.628906 -3.960938 L 4.453125 -3.828125 L 4.277344 -3.773438 L 3.9375 -3.730469 L 3.378906 -3.742188 Z M 3.113281 -3.71875 "/></g></g></g><g fill="#feffff" fill-opacity="1"><g transform="translate(66.255297, 16.009951)"><g><path d="M 2.511719 -0.328125 L 2.597656 -0.0859375 L 2.828125 0 L 3.050781 0.0117188 L 3.246094 -0.0117188 L 3.585938 0.0117188 L 3.894531 -0.0117188 L 4.113281 0.0117188 L 4.332031 -0.109375 L 4.421875 -0.339844 L 4.453125 -1.613281 L 4.429688 -1.832031 L 4.429688 -2.050781 L 4.464844 -2.25 L 4.453125 -2.886719 L 4.519531 -3.203125 L 4.628906 -3.488281 L 6.023438 -5.78125 L 6.152344 -5.933594 L 6.855469 -7.097656 L 6.976562 -7.371094 L 6.933594 -7.613281 L 6.734375 -7.65625 L 6.308594 -7.667969 L 6.078125 -7.644531 L 5.855469 -7.679688 L 5.429688 -7.667969 L 5.242188 -7.679688 L 4.945312 -7.570312 L 4.75 -7.382812 L 4.464844 -6.910156 L 4.332031 -6.582031 L 4.089844 -6.230469 L 3.980469 -6 L 3.871094 -5.8125 L 3.683594 -5.398438 L 3.542969 -5.210938 L 3.421875 -5.210938 L 3.300781 -5.417969 L 3.179688 -5.59375 L 2.851562 -6.207031 L 2.730469 -6.394531 L 2.214844 -7.359375 L 1.984375 -7.570312 L 1.734375 -7.667969 L 1.503906 -7.65625 L 1.316406 -7.699219 L 0.757812 -7.65625 L 0.253906 -7.6875 L 0.03125 -7.578125 L 0 -7.339844 L 0.109375 -7.085938 L 0.582031 -6.308594 L 0.703125 -6.152344 L 1.152344 -5.375 L 1.414062 -5.023438 L 1.503906 -4.828125 L 2.347656 -3.488281 L 2.457031 -3.179688 L 2.511719 -2.886719 L 2.5 -2.019531 L 2.523438 -1.800781 L 2.5 -0.953125 L 2.523438 -0.746094 Z M 2.511719 -0.328125 "/></g></g></g><g fill="#feffff" fill-opacity="1"><g transform="translate(73.227877, 16.009951)"><g/></g></g><g fill="#feffff" fill-opacity="1"><g transform="translate(76.198895, 16.009951)"><g><path d="M 3.816406 0.0859375 L 4.367188 0.132812 L 5.132812 0.078125 L 5.78125 -0.0546875 L 5.976562 -0.164062 L 6.207031 -0.242188 L 6.394531 -0.328125 L 6.933594 -0.714844 L 7.238281 -1.019531 L 7.492188 -1.347656 L 7.722656 -1.742188 L 8.007812 -2.578125 L 7.941406 -2.773438 L 7.722656 -2.917969 L 7.109375 -2.875 L 6.886719 -2.90625 L 6.667969 -2.894531 L 6.449219 -2.90625 L 6.199219 -2.773438 L 6.023438 -2.597656 L 5.914062 -2.390625 L 5.660156 -2.105469 L 5.484375 -1.953125 L 5.320312 -1.886719 L 4.9375 -1.679688 L 4.355469 -1.644531 L 4.035156 -1.679688 L 3.640625 -1.820312 L 3.257812 -2.019531 L 2.941406 -2.304688 L 2.699219 -2.6875 L 2.621094 -2.90625 L 2.542969 -3.058594 L 2.488281 -3.257812 L 2.457031 -3.5 L 2.457031 -4.167969 L 2.535156 -4.605469 L 2.699219 -5 L 2.808594 -5.210938 L 3.070312 -5.515625 L 3.335938 -5.726562 L 3.628906 -5.890625 L 4.367188 -5.988281 L 4.835938 -5.96875 L 5.175781 -5.867188 L 5.375 -5.792969 L 5.527344 -5.671875 L 5.847656 -5.351562 L 5.96875 -5.1875 L 6.175781 -4.980469 L 6.425781 -4.859375 L 6.625 -4.882812 L 6.855469 -4.871094 L 7.074219 -4.882812 L 7.382812 -4.847656 L 7.710938 -4.882812 L 7.898438 -4.96875 L 7.972656 -5.1875 L 7.910156 -5.429688 L 7.832031 -5.628906 L 7.765625 -5.855469 L 7.644531 -6.03125 L 7.546875 -6.207031 L 7.394531 -6.394531 L 7.273438 -6.601562 L 6.964844 -6.921875 L 6.21875 -7.394531 L 5.167969 -7.742188 L 4.957031 -7.753906 L 4.738281 -7.789062 L 4.058594 -7.796875 L 2.996094 -7.589844 L 2.183594 -7.207031 L 1.863281 -6.964844 L 1.394531 -6.539062 L 1.097656 -6.164062 L 0.886719 -5.847656 L 0.613281 -5.230469 L 0.503906 -4.78125 L 0.394531 -3.839844 L 0.460938 -3.039062 L 0.613281 -2.414062 L 1.085938 -1.457031 L 1.535156 -0.976562 L 2.027344 -0.546875 L 2.5 -0.296875 L 2.996094 -0.0859375 L 3.191406 -0.0429688 L 3.410156 0.03125 L 3.609375 0.078125 Z M 3.816406 0.0859375 "/></g></g></g><g fill="#feffff" fill-opacity="1"><g transform="translate(84.563795, 16.009951)"><g><path d="M 4.398438 0.144531 L 5.375 0.0429688 L 5.792969 -0.0859375 L 6.769531 -0.527344 L 7.535156 -1.261719 L 7.679688 -1.457031 L 8.105469 -2.214844 L 8.183594 -2.425781 L 8.214844 -2.644531 L 8.28125 -2.820312 L 8.324219 -3.058594 L 8.378906 -3.828125 L 8.324219 -4.585938 L 8.238281 -4.992188 L 8.148438 -5.222656 L 8.09375 -5.472656 L 7.898438 -5.835938 L 7.820312 -6.03125 L 7.679688 -6.21875 L 7.546875 -6.351562 L 7.402344 -6.546875 L 6.933594 -6.976562 L 6.371094 -7.328125 L 4.9375 -7.777344 L 4.421875 -7.789062 L 3.652344 -7.742188 L 3.433594 -7.699219 L 3.214844 -7.632812 L 3.015625 -7.546875 L 2.597656 -7.4375 L 2.039062 -7.085938 L 1.886719 -6.953125 L 1.535156 -6.710938 L 1.238281 -6.382812 L 0.867188 -5.835938 L 0.769531 -5.648438 L 0.558594 -5.046875 L 0.472656 -4.574219 L 0.429688 -3.300781 L 0.546875 -2.609375 L 0.714844 -2.238281 L 0.777344 -2.007812 L 0.886719 -1.808594 L 1.402344 -1.109375 L 1.710938 -0.8125 L 1.855469 -0.648438 L 2.597656 -0.253906 L 2.808594 -0.164062 L 3.742188 0.109375 Z M 4.089844 -1.789062 L 3.871094 -1.863281 L 3.675781 -1.886719 L 3.300781 -2.085938 L 2.960938 -2.378906 L 2.851562 -2.535156 L 2.710938 -2.6875 L 2.5 -3.300781 L 2.445312 -3.851562 L 2.457031 -4.179688 L 2.535156 -4.585938 L 2.597656 -4.78125 L 2.730469 -4.9375 L 2.828125 -5.121094 L 2.972656 -5.296875 L 3.136719 -5.441406 L 3.457031 -5.660156 L 3.652344 -5.757812 L 3.882812 -5.8125 L 4.386719 -5.855469 L 4.914062 -5.824219 L 5.496094 -5.570312 L 5.835938 -5.320312 L 6.085938 -4.945312 L 6.175781 -4.75 L 6.242188 -4.53125 L 6.316406 -4.332031 L 6.363281 -3.859375 L 6.296875 -3.3125 L 6.199219 -2.863281 L 6.078125 -2.699219 L 5.976562 -2.535156 L 5.847656 -2.335938 L 5.507812 -2.074219 L 5.308594 -1.984375 L 5.132812 -1.886719 L 4.9375 -1.863281 L 4.726562 -1.808594 Z M 4.089844 -1.789062 "/></g></g></g><g fill="#feffff" fill-opacity="1"><g transform="translate(93.356268, 16.009951)"><g><path d="M 6.472656 -0.1875 L 6.769531 -0.0117188 L 7.074219 0.0234375 L 7.316406 -0.0546875 L 7.425781 -0.273438 L 7.449219 -4.277344 L 7.414062 -4.464844 L 7.414062 -5.550781 L 7.449219 -5.8125 L 7.414062 -7.339844 L 7.304688 -7.558594 L 7.085938 -7.679688 L 5.726562 -7.667969 L 5.515625 -7.546875 L 5.398438 -7.316406 L 5.386719 -7.085938 L 5.417969 -6.910156 L 5.386719 -6.449219 L 5.40625 -6.207031 L 5.386719 -4.246094 L 5.320312 -4.058594 L 5.15625 -4.136719 L 4.375 -4.914062 L 4.070312 -5.15625 L 1.910156 -7.339844 L 1.742188 -7.46875 L 1.492188 -7.601562 L 1.164062 -7.679688 L 0.910156 -7.570312 L 0.8125 -7.359375 L 0.8125 -4.035156 L 0.800781 -3.851562 L 0.824219 -3.398438 L 0.789062 -3.214844 L 0.8125 -1.414062 L 0.789062 -1.207031 L 0.8125 -0.285156 L 0.910156 -0.078125 L 1.140625 0 L 1.589844 0.0234375 L 1.832031 0 L 2.257812 0.03125 L 2.488281 0.0234375 L 2.710938 -0.0859375 L 2.820312 -0.429688 L 2.828125 -3.203125 L 2.851562 -3.421875 L 2.929688 -3.609375 L 3.070312 -3.554688 L 3.214844 -3.367188 L 3.992188 -2.621094 L 4.136719 -2.457031 L 4.320312 -2.335938 L 6.023438 -0.648438 L 6.308594 -0.328125 Z M 6.472656 -0.1875 "/></g></g></g><g fill="#feffff" fill-opacity="1"><g transform="translate(101.622508, 16.009951)"><g><path d="M 3.816406 0.03125 L 5.386719 0.0117188 L 5.617188 -0.0859375 L 5.738281 -0.316406 L 5.738281 -1.425781 L 5.617188 -1.644531 L 5.386719 -1.742188 L 5.132812 -1.722656 L 4.925781 -1.753906 L 4.367188 -1.765625 L 4.003906 -1.722656 L 3.785156 -1.742188 L 3.542969 -1.734375 L 3.335938 -1.765625 L 3.09375 -1.742188 L 2.863281 -1.855469 L 2.773438 -2.050781 L 2.773438 -2.742188 L 2.875 -2.972656 L 3.070312 -3.09375 L 3.398438 -3.105469 L 3.75 -3.070312 L 4.167969 -3.09375 L 4.617188 -3.082031 L 4.835938 -3.105469 L 5.089844 -3.09375 L 5.308594 -3.179688 L 5.386719 -3.398438 L 5.417969 -4.386719 L 5.308594 -4.695312 L 5.054688 -4.835938 L 4.410156 -4.835938 L 4.179688 -4.816406 L 3.71875 -4.847656 L 3.082031 -4.828125 L 2.851562 -4.925781 L 2.765625 -5.265625 L 2.765625 -5.605469 L 2.863281 -5.8125 L 3.105469 -5.902344 L 3.3125 -5.890625 L 3.519531 -5.933594 L 5.089844 -5.914062 L 5.296875 -5.921875 L 5.527344 -6.054688 L 5.636719 -6.253906 L 5.628906 -6.472656 L 5.636719 -6.691406 L 5.617188 -7.347656 L 5.515625 -7.558594 L 5.296875 -7.644531 L 5.066406 -7.644531 L 4.871094 -7.6875 L 3.980469 -7.679688 L 3.742188 -7.65625 L 3.519531 -7.679688 L 3.335938 -7.667969 L 3.113281 -7.6875 L 2.214844 -7.667969 L 1.996094 -7.699219 L 1.789062 -7.65625 L 1.589844 -7.679688 L 1.371094 -7.65625 L 1.152344 -7.667969 L 0.921875 -7.578125 L 0.800781 -7.347656 L 0.824219 -6.933594 L 0.789062 -6.484375 L 0.824219 -6.242188 L 0.800781 -5.167969 L 0.832031 -4.9375 L 0.8125 -4.726562 L 0.800781 -3.828125 L 0.832031 -3.628906 L 0.824219 -1.855469 L 0.800781 -1.644531 L 0.832031 -1.425781 L 0.800781 -0.667969 L 0.824219 -0.429688 L 0.910156 -0.132812 L 1.238281 0.0117188 L 2.027344 0.0234375 L 2.269531 0 L 2.46875 0.0117188 L 2.917969 -0.0234375 L 3.125 0.0234375 L 3.378906 0.03125 L 3.597656 0.0117188 Z M 3.816406 0.03125 "/></g></g></g><g fill="#feffff" fill-opacity="1"><g transform="translate(107.904411, 16.009951)"><g><path d="M 2.949219 0.0976562 L 3.816406 0.121094 L 4.035156 0.0976562 L 4.257812 0.0429688 L 4.476562 0.0117188 L 4.695312 -0.078125 L 4.890625 -0.0976562 L 5.101562 -0.199219 L 5.847656 -0.648438 L 6.164062 -0.976562 L 6.273438 -1.128906 L 6.394531 -1.371094 L 6.460938 -1.570312 L 6.527344 -1.753906 L 6.59375 -2.304688 L 6.570312 -2.65625 L 6.40625 -3.289062 L 6.285156 -3.464844 L 6 -3.796875 L 5.800781 -3.96875 L 5.628906 -4.058594 L 5.429688 -4.179688 L 4.574219 -4.441406 L 4.355469 -4.476562 L 4.136719 -4.484375 L 3.90625 -4.53125 L 3.585938 -4.53125 L 3.003906 -4.652344 L 2.597656 -4.847656 L 2.433594 -5 L 2.390625 -5.332031 L 2.445312 -5.628906 L 2.578125 -5.769531 L 2.742188 -5.890625 L 2.917969 -5.988281 L 3.113281 -6.03125 L 3.464844 -6.042969 L 3.816406 -6 L 4.015625 -5.945312 L 4.210938 -5.8125 L 4.398438 -5.660156 L 4.5625 -5.441406 L 4.804688 -5.296875 L 5.320312 -5.339844 L 5.617188 -5.320312 L 5.835938 -5.320312 L 6.03125 -5.296875 L 6.242188 -5.453125 L 6.328125 -5.636719 L 6.285156 -5.847656 L 6.261719 -6.054688 L 5.957031 -6.625 L 5.714844 -6.953125 L 4.992188 -7.457031 L 4.375 -7.667969 L 3.949219 -7.753906 L 3.105469 -7.777344 L 2.863281 -7.710938 L 2.644531 -7.699219 L 2.445312 -7.667969 L 2.027344 -7.535156 L 1.65625 -7.316406 L 1.128906 -6.953125 L 0.746094 -6.4375 L 0.546875 -5.835938 L 0.515625 -5.296875 L 0.527344 -4.957031 L 0.601562 -4.519531 L 0.777344 -4.136719 L 1.183594 -3.628906 L 1.929688 -3.226562 L 2.324219 -3.09375 L 4.046875 -2.894531 L 4.441406 -2.710938 L 4.585938 -2.578125 L 4.652344 -2.304688 L 4.5625 -2.027344 L 4.421875 -1.863281 L 4.046875 -1.699219 L 3.707031 -1.679688 L 3.511719 -1.644531 L 2.949219 -1.699219 L 2.765625 -1.800781 L 2.578125 -1.917969 L 2.214844 -2.3125 L 1.996094 -2.402344 L 1.800781 -2.378906 L 1.589844 -2.414062 L 0.746094 -2.371094 L 0.546875 -2.28125 L 0.460938 -2.050781 L 0.492188 -1.832031 L 0.539062 -1.613281 L 0.601562 -1.414062 L 0.8125 -1.007812 L 0.964844 -0.867188 L 1.109375 -0.703125 L 1.492188 -0.460938 L 1.644531 -0.296875 L 1.855469 -0.199219 L 2.074219 -0.132812 L 2.5 0.0234375 Z M 2.949219 0.0976562 "/></g></g></g><g fill="#e4c590" fill-opacity="1"><g transform="translate(34.502516, 30.995955)"><g><path d="M 0.75 -5.453125 L 0 -6.3125 L 5.359375 -6.3125 L 6.109375 -5.453125 L 3.84375 -5.453125 L 3.859375 0.28125 L 2.53125 0 L 2.53125 -5.453125 Z M 0.75 -5.453125 "/></g></g><g transform="translate(40.616578, 30.995955)"><g><path d="M 1.96875 -5.921875 L 1.96875 -3.265625 L 5.03125 -3.4375 L 5.03125 -6.296875 L 6.359375 -5.921875 L 6.359375 0.28125 L 5.03125 0 L 5.03125 -2.640625 L 1.96875 -2.46875 L 1.984375 0.28125 L 0.65625 0 L 0.65625 -6.296875 Z M 1.96875 -5.921875 "/></g></g></g><g fill="#e4c590" fill-opacity="1"><g transform="translate(47.628377, 30.995955)"><g><path d="M 1.890625 0 L 1.875 -0.015625 L 0.65625 -0.28125 L 0.65625 -6.3125 L 4.703125 -6.3125 L 5.453125 -5.453125 L 1.96875 -5.453125 L 1.96875 -3.640625 L 4.3125 -3.640625 L 5.078125 -2.78125 L 1.96875 -2.78125 L 1.96875 -0.84375 L 5.078125 -0.84375 L 5.828125 0 Z M 1.890625 0 "/></g></g></g><g fill="#e4c590" fill-opacity="1"><g transform="translate(53.60069, 30.995955)"><g/></g></g><g fill="#e4c590" fill-opacity="1"><g transform="translate(56.908142, 30.995955)"><g><path d="M 5.171875 -0.015625 L 5.171875 -1.90625 C 4.765625 -1.707031 4.425781 -1.609375 4.15625 -1.609375 C 3.925781 -1.609375 3.519531 -1.8125 2.9375 -2.21875 C 2.675781 -1.914062 2.332031 -1.695312 1.90625 -1.5625 C 2.019531 -1.351562 2.273438 -1.070312 2.671875 -0.71875 C 3.078125 -0.375 3.46875 -0.078125 3.84375 0.171875 L 3.578125 0.53125 C 2.703125 -0.0195312 2.085938 -0.441406 1.734375 -0.734375 C 0.984375 -1.367188 0.484375 -2.035156 0.234375 -2.734375 C 0.367188 -3.148438 0.507812 -3.441406 0.65625 -3.609375 C 0.71875 -3.679688 0.820312 -3.675781 0.96875 -3.59375 C 1.125 -3.519531 1.257812 -3.425781 1.375 -3.3125 C 1.40625 -3.28125 1.429688 -3.226562 1.453125 -3.15625 C 1.484375 -3.082031 1.507812 -2.984375 1.53125 -2.859375 C 1.550781 -2.734375 1.570312 -2.628906 1.59375 -2.546875 C 1.84375 -2.628906 2.039062 -2.757812 2.1875 -2.9375 C 2.332031 -3.125 2.414062 -3.332031 2.4375 -3.5625 C 2.457031 -3.789062 2.445312 -4.019531 2.40625 -4.25 C 2.375 -4.476562 2.316406 -4.707031 2.234375 -4.9375 L -0.03125 -4.9375 L -0.03125 -5.84375 L 6.859375 -5.84375 L 6.859375 -4.9375 L 6.34375 -4.9375 L 6.34375 0.515625 Z M 2.890625 -4.9375 C 3.160156 -4.519531 3.320312 -4.101562 3.375 -3.6875 C 3.425781 -3.269531 3.359375 -2.890625 3.171875 -2.546875 C 3.359375 -2.460938 3.5625 -2.414062 3.78125 -2.40625 C 4.007812 -2.394531 4.253906 -2.453125 4.515625 -2.578125 C 4.785156 -2.710938 5.003906 -2.921875 5.171875 -3.203125 L 5.171875 -4.9375 Z M 2.890625 -4.9375 "/></g></g></g><g fill="#e4c590" fill-opacity="1"><g transform="translate(63.721493, 30.995955)"><g><path d="M -0.046875 -4.9375 L -0.046875 -5.84375 L 2.578125 -5.84375 L 2.578125 -4.9375 L 1.84375 -4.9375 L 1.84375 0.53125 L 0.671875 0 L 0.671875 -4.9375 Z M -0.046875 -4.9375 "/></g></g></g><g fill="#e4c590" fill-opacity="1"><g transform="translate(66.263506, 30.995955)"><g><path d="M 5.171875 -0.015625 L 5.171875 -1.90625 C 4.765625 -1.707031 4.425781 -1.609375 4.15625 -1.609375 C 3.925781 -1.609375 3.519531 -1.8125 2.9375 -2.21875 C 2.675781 -1.914062 2.332031 -1.695312 1.90625 -1.5625 C 2.019531 -1.351562 2.273438 -1.070312 2.671875 -0.71875 C 3.078125 -0.375 3.46875 -0.078125 3.84375 0.171875 L 3.578125 0.53125 C 2.703125 -0.0195312 2.085938 -0.441406 1.734375 -0.734375 C 0.984375 -1.367188 0.484375 -2.035156 0.234375 -2.734375 C 0.367188 -3.148438 0.507812 -3.441406 0.65625 -3.609375 C 0.71875 -3.679688 0.820312 -3.675781 0.96875 -3.59375 C 1.125 -3.519531 1.257812 -3.425781 1.375 -3.3125 C 1.40625 -3.28125 1.429688 -3.226562 1.453125 -3.15625 C 1.484375 -3.082031 1.507812 -2.984375 1.53125 -2.859375 C 1.550781 -2.734375 1.570312 -2.628906 1.59375 -2.546875 C 1.84375 -2.628906 2.039062 -2.757812 2.1875 -2.9375 C 2.332031 -3.125 2.414062 -3.332031 2.4375 -3.5625 C 2.457031 -3.789062 2.445312 -4.019531 2.40625 -4.25 C 2.375 -4.476562 2.316406 -4.707031 2.234375 -4.9375 L -0.03125 -4.9375 L -0.03125 -5.84375 L 6.859375 -5.84375 L 6.859375 -4.9375 L 6.34375 -4.9375 L 6.34375 0.515625 Z M 2.890625 -4.9375 C 3.160156 -4.519531 3.320312 -4.101562 3.375 -3.6875 C 3.425781 -3.269531 3.359375 -2.890625 3.171875 -2.546875 C 3.359375 -2.460938 3.5625 -2.414062 3.78125 -2.40625 C 4.007812 -2.394531 4.253906 -2.453125 4.515625 -2.578125 C 4.785156 -2.710938 5.003906 -2.921875 5.171875 -3.203125 L 5.171875 -4.9375 Z M 2.890625 -4.9375 "/></g></g></g><g fill="#e4c590" fill-opacity="1"><g transform="translate(73.076855, 30.995955)"><g/></g><g transform="translate(76.384308, 30.995955)"><g><path d="M 3.71875 -0.015625 L 3.71875 -1.328125 C 3.34375 -0.890625 2.960938 -0.671875 2.578125 -0.671875 C 1.828125 -0.671875 1.140625 -1.273438 0.515625 -2.484375 C 0.378906 -2.734375 0.457031 -3.035156 0.75 -3.390625 C 1.039062 -3.742188 1.394531 -4.019531 1.8125 -4.21875 C 2.226562 -4.425781 2.53125 -4.46875 2.71875 -4.34375 C 3.03125 -4.113281 3.363281 -3.882812 3.71875 -3.65625 L 3.71875 -4.9375 L -0.078125 -4.9375 L -0.078125 -5.84375 L 5.609375 -5.84375 L 5.609375 -4.9375 L 4.90625 -4.9375 L 4.90625 0.515625 Z M 1.421875 -1.90625 C 1.492188 -1.820312 1.597656 -1.75 1.734375 -1.6875 C 1.878906 -1.632812 2.066406 -1.613281 2.296875 -1.625 C 2.523438 -1.632812 2.753906 -1.710938 2.984375 -1.859375 L 1.8125 -2.984375 C 1.601562 -2.796875 1.457031 -2.597656 1.375 -2.390625 C 1.300781 -2.179688 1.316406 -2.019531 1.421875 -1.90625 Z M 3.265625 -2.0625 C 3.441406 -2.21875 3.59375 -2.382812 3.71875 -2.5625 L 3.71875 -3.15625 C 3.195312 -3.488281 2.660156 -3.492188 2.109375 -3.171875 Z M 3.265625 -2.0625 "/></g></g></g><g fill="#e4c590" fill-opacity="1"><g transform="translate(81.940827, 30.995955)"><g><path d="M 5.5625 3.40625 L 5.390625 3.609375 C 5.234375 3.492188 5.046875 3.347656 4.828125 3.171875 C 4.617188 3.003906 4.453125 2.875 4.328125 2.78125 C 4.210938 2.6875 4.066406 2.578125 3.890625 2.453125 C 3.710938 2.328125 3.570312 2.234375 3.46875 2.171875 C 3.375 2.117188 3.257812 2.054688 3.125 1.984375 C 2.988281 1.910156 2.875 1.863281 2.78125 1.84375 C 2.6875 1.832031 2.582031 1.828125 2.46875 1.828125 C 2.363281 1.828125 2.257812 1.847656 2.15625 1.890625 C 2.0625 1.929688 1.96875 1.988281 1.875 2.0625 C 1.707031 2.195312 1.613281 2.351562 1.59375 2.53125 C 1.570312 2.71875 1.609375 2.875 1.703125 3 C 1.804688 3.125 1.9375 3.21875 2.09375 3.28125 C 2.257812 3.351562 2.441406 3.335938 2.640625 3.234375 L 3.125 3 L 3.703125 3.703125 C 3.453125 3.859375 3.164062 3.988281 2.84375 4.09375 C 2.519531 4.195312 2.300781 4.234375 2.1875 4.203125 C 1.96875 4.160156 1.503906 3.769531 0.796875 3.03125 C 0.492188 2.664062 0.492188 2.269531 0.796875 1.84375 C 1.097656 1.414062 1.515625 1.148438 2.046875 1.046875 C 1.035156 0.265625 0.523438 -0.378906 0.515625 -0.890625 C 0.515625 -1.210938 0.816406 -1.601562 1.421875 -2.0625 C 1.171875 -2.289062 0.960938 -2.492188 0.796875 -2.671875 C 0.679688 -2.835938 0.640625 -3.039062 0.671875 -3.28125 C 0.710938 -3.519531 0.8125 -3.75 0.96875 -3.96875 C 1.132812 -4.1875 1.300781 -4.296875 1.46875 -4.296875 L 3.203125 -4.40625 L 3.203125 -4.9375 L -0.140625 -4.9375 L -0.140625 -5.84375 L 5.25 -5.84375 L 5.25 -4.9375 L 4.25 -4.9375 L 4.25 -3.609375 L 2.171875 -3.609375 C 1.921875 -3.609375 1.722656 -3.523438 1.578125 -3.359375 C 1.441406 -3.191406 1.382812 -3.003906 1.40625 -2.796875 C 1.4375 -2.585938 1.546875 -2.421875 1.734375 -2.296875 C 2.398438 -2.722656 2.878906 -2.929688 3.171875 -2.921875 C 3.398438 -2.910156 3.75 -2.671875 4.21875 -2.203125 C 4.6875 -1.742188 4.925781 -1.441406 4.9375 -1.296875 C 4.945312 -1.003906 4.828125 -0.722656 4.578125 -0.453125 C 4.335938 -0.191406 4.101562 -0.015625 3.875 0.078125 L 3.1875 -0.640625 C 3.488281 -0.765625 3.722656 -0.945312 3.890625 -1.1875 C 4.066406 -1.4375 4.070312 -1.664062 3.90625 -1.875 C 3.8125 -1.957031 3.679688 -2 3.515625 -2 C 3.347656 -2 3.15625 -1.941406 2.9375 -1.828125 C 2.726562 -1.722656 2.523438 -1.597656 2.328125 -1.453125 C 2.140625 -1.316406 1.984375 -1.15625 1.859375 -0.96875 C 1.734375 -0.78125 1.675781 -0.601562 1.6875 -0.4375 C 1.707031 0.0195312 2.128906 0.5625 2.953125 1.1875 C 3.035156 1.226562 3.207031 1.347656 3.46875 1.546875 L 3.484375 1.546875 C 4.097656 2.023438 4.789062 2.644531 5.5625 3.40625 Z M 5.5625 3.40625 "/></g></g></g><g fill="#e4c590" fill-opacity="1"><g transform="translate(87.119352, 30.995955)"><g/></g><g transform="translate(90.426804, 30.995955)"><g><path d="M 6 -4.984375 C 5.5 -5.242188 5.035156 -5.46875 4.609375 -5.65625 C 4.273438 -5.800781 3.914062 -5.785156 3.53125 -5.609375 C 3.15625 -5.429688 2.832031 -5.148438 2.5625 -4.765625 C 2.300781 -4.378906 2.097656 -3.957031 1.953125 -3.5 C 1.804688 -3.050781 1.800781 -2.59375 1.9375 -2.125 C 2.070312 -1.65625 2.351562 -1.28125 2.78125 -1 C 3.007812 -0.851562 3.25 -0.765625 3.5 -0.734375 C 3.75 -0.710938 3.992188 -0.75 4.234375 -0.84375 C 4.484375 -0.9375 4.703125 -1.039062 4.890625 -1.15625 C 5.085938 -1.269531 5.296875 -1.410156 5.515625 -1.578125 L 6.671875 -0.734375 C 6.328125 -0.453125 5.960938 -0.222656 5.578125 -0.046875 C 5.191406 0.117188 4.78125 0.21875 4.34375 0.25 C 3.90625 0.28125 3.5 0.179688 3.125 -0.046875 C 2.5 -0.410156 1.898438 -0.851562 1.328125 -1.375 C 1.066406 -1.613281 0.863281 -1.875 0.71875 -2.15625 C 0.582031 -2.445312 0.503906 -2.734375 0.484375 -3.015625 C 0.472656 -3.304688 0.492188 -3.601562 0.546875 -3.90625 C 0.609375 -4.21875 0.710938 -4.503906 0.859375 -4.765625 C 1.003906 -5.023438 1.171875 -5.273438 1.359375 -5.515625 C 1.546875 -5.753906 1.757812 -5.957031 2 -6.125 C 2.238281 -6.289062 2.476562 -6.429688 2.71875 -6.546875 C 2.96875 -6.660156 3.222656 -6.710938 3.484375 -6.703125 C 3.742188 -6.691406 3.988281 -6.640625 4.21875 -6.546875 C 5.164062 -6.117188 5.910156 -5.769531 6.453125 -5.5 Z M 6 -4.984375 "/></g></g><g transform="translate(97.098408, 30.995955)"><g><path d="M 3.6875 -5.90625 L 3.671875 -5.875 L 6.203125 0.28125 L 4.984375 0 L 4.328125 -1.734375 L 2.09375 -1.578125 L 1.421875 0.28125 L 0.09375 0 L 2.375 -6.296875 Z M 3.21875 -4.625 L 2.40625 -2.40625 L 4.03125 -2.515625 Z M 3.21875 -4.625 "/></g></g><g transform="translate(103.306968, 30.995955)"><g><path d="M 5.078125 -2.5 L 1.96875 -2.5 L 1.984375 0.28125 L 0.65625 0 L 0.65625 -6.296875 L 0.671875 -6.28125 L 0.65625 -6.3125 L 4.703125 -6.3125 L 5.453125 -5.453125 L 1.96875 -5.453125 L 1.96875 -3.359375 L 4.3125 -3.359375 Z M 5.078125 -2.5 "/></g></g></g><g fill="#e4c590" fill-opacity="1"><g transform="translate(108.806785, 30.995955)"><g><path d="M 1.890625 0 L 1.875 -0.015625 L 0.65625 -0.28125 L 0.65625 -6.3125 L 4.703125 -6.3125 L 5.453125 -5.453125 L 1.96875 -5.453125 L 1.96875 -3.640625 L 4.3125 -3.640625 L 5.078125 -2.78125 L 1.96875 -2.78125 L 1.96875 -0.84375 L 5.078125 -0.84375 L 5.828125 0 Z M 1.890625 0 "/></g></g></g><path stroke-linecap="butt" transform="matrix(0.740131, 0.0011025, -0.0011025, 0.740131, 37.426535, 20.000679)" fill="none" stroke-linejoin="miter" d="M -0.000272293 0.500472 L 102.605128 0.500687 " stroke="#e4c590" stroke-width="1" stroke-opacity="1" stroke-miterlimit="4"/></svg>